<svg width="59" height="58" viewBox="0 0 59 58" fill="none" xmlns="http://www.w3.org/2000/svg">
<rect x="2.5" y="2.5" width="53.6299" height="53" rx="26.5" fill="black"/>
<rect x="2.5" y="2.5" width="53.6299" height="53" rx="26.5" stroke="black" stroke-width="5"/>
<path d="M49.171 12.3256C49.171 13.7512 48.0169 14.907 46.5932 14.907C45.1695 14.907 44.0154 13.7512 44.0154 12.3256C44.0154 10.8999 45.1695 9.74419 46.5932 9.74419C48.0169 9.74419 49.171 10.8999 49.171 12.3256Z" fill="white"/>
<path fill-rule="evenodd" clip-rule="evenodd" d="M29.3846 35C32.8476 35 35.655 32.1888 35.655 28.7209C35.655 25.2531 32.8476 22.4419 29.3846 22.4419C25.9216 22.4419 23.1143 25.2531 23.1143 28.7209C23.1143 32.1888 25.9216 35 29.3846 35ZM29.3149 32.3488C31.3543 32.3488 33.0075 30.6933 33.0075 28.6512C33.0075 26.609 31.3543 24.9535 29.3149 24.9535C27.2756 24.9535 25.6224 26.609 25.6224 28.6512C25.6224 30.6933 27.2756 32.3488 29.3149 32.3488Z" fill="white"/>
<path d="M19.9707 19.3758L27.9671 24.5156L24.8953 27.5917L19.9707 19.3758Z" fill="white"/>
<path d="M38.8559 19.3309L33.8338 26.9602L30.931 23.9887L38.8559 19.3309Z" fill="white"/>
<path d="M38.7986 38.2845L30.8021 33.1446L33.8739 30.0685L38.7986 38.2845Z" fill="white"/>
<path d="M19.6346 38.2094L24.6567 30.58L27.5596 33.5516L19.6346 38.2094Z" fill="white"/>
<path d="M15.7292 28.8605C15.7292 28.1669 16.2907 27.6047 16.9833 27.6047H24.647V30.1163H16.9833C16.2907 30.1163 15.7292 29.554 15.7292 28.8605Z" fill="white"/>
<path d="M53.6299 28.8605C53.6299 29.554 53.0685 30.1163 52.3759 30.1163H35.2369V27.6047H52.3759C53.0685 27.6047 53.6299 28.1669 53.6299 28.8605Z" fill="white"/>
<path d="M29.2453 53C28.5527 53 27.9912 52.4378 27.9912 51.7442V34.5814H30.6387V51.7442C30.6387 52.4378 30.0772 53 29.3846 53H29.2453Z" fill="white"/>
<path d="M29.3846 5C30.0772 5 30.6387 5.56225 30.6387 6.25581V23.4186H27.9912V6.25581C27.9912 5.56225 28.5527 5 29.2453 5H29.3846Z" fill="white"/>
<path d="M10.922 25.2326H13.6391C13.6391 25.2326 15.0325 14.3488 28.0609 12.3954H30.569C45.3391 14.5581 45.3391 27.6744 45.3391 27.6744L48.0563 27.6744C48.0563 27.6744 47.3596 11.7674 30.6387 9.74419H27.9912C13.1514 11.3488 10.922 25.2326 10.922 25.2326Z" fill="white"/>
<path d="M47.5686 32.4186H45.1302C45.1302 32.4186 43.04 44.1901 30.569 45.186C29.5655 45.2662 28.9947 45.2666 27.9912 45.186C15.3809 44.1737 13.1514 32.2093 13.1514 29.2791C13.1514 29.2791 13.1514 28.7209 12.5244 28.2326C12.0248 27.8435 11.4096 27.6744 11.4096 27.6744H5.87369C5.87369 27.6744 5 27.814 5 28.9302C4.99994 30.0068 5.97539 30.0465 5.97539 30.0465H10.6433C10.6433 32.7674 13.5694 46.4419 27.9912 47.6977C29.0226 47.771 29.6088 47.7888 30.6387 47.6977C45.6178 46.3721 47.5686 32.4186 47.5686 32.4186Z" fill="white"/>
</svg>
