<svg width="259" height="36" viewBox="0 0 259 36" fill="none" xmlns="http://www.w3.org/2000/svg">
<path d="M106.034 8.2828C106.034 9.03436 105.432 9.64361 104.689 9.64361C103.946 9.64361 103.344 9.03436 103.344 8.2828C103.344 7.53125 103.946 6.922 104.689 6.922C105.432 6.922 106.034 7.53125 106.034 8.2828Z" fill="white"/>
<path fill-rule="evenodd" clip-rule="evenodd" d="M95.7104 20.2358C97.5173 20.2358 98.982 18.7539 98.982 16.9258C98.982 15.0977 97.5173 13.6157 95.7104 13.6157C93.9035 13.6157 92.4388 15.0977 92.4388 16.9258C92.4388 18.7539 93.9035 20.2358 95.7104 20.2358ZM95.674 18.8382C96.7381 18.8382 97.6007 17.9655 97.6007 16.889C97.6007 15.8124 96.7381 14.9397 95.674 14.9397C94.61 14.9397 93.7474 15.8124 93.7474 16.889C93.7474 17.9655 94.61 18.8382 95.674 18.8382Z" fill="white"/>
<path d="M90.7985 11.9994L94.9708 14.7089L93.368 16.3305L90.7985 11.9994Z" fill="white"/>
<path d="M100.652 11.9757L98.0318 15.9976L96.5172 14.4311L100.652 11.9757Z" fill="white"/>
<path d="M100.622 21.9673L96.45 19.2578L98.0528 17.6362L100.622 21.9673Z" fill="white"/>
<path d="M90.6232 21.9277L93.2436 17.9058L94.7582 19.4723L90.6232 21.9277Z" fill="white"/>
<path d="M88.5855 16.9993C88.5855 16.6337 88.8784 16.3373 89.2398 16.3373H93.2385V17.6613H89.2398C88.8784 17.6613 88.5855 17.3649 88.5855 16.9993Z" fill="white"/>
<path d="M108.361 16.9993C108.361 17.3649 108.068 17.6613 107.706 17.6613H98.7639V16.3373H107.706C108.068 16.3373 108.361 16.6337 108.361 16.9993Z" fill="white"/>
<path d="M95.6377 29.7247C95.2763 29.7247 94.9834 29.4283 94.9834 29.0627V20.0152H96.3647V29.0627C96.3647 29.4283 96.0718 29.7247 95.7104 29.7247H95.6377Z" fill="white"/>
<path d="M95.7104 4.42105C96.0718 4.42105 96.3647 4.71745 96.3647 5.08307V14.1306H94.9834V5.08307C94.9834 4.71745 95.2763 4.42105 95.6377 4.42105H95.7104Z" fill="white"/>
<path d="M86.0772 15.0868H87.4949C87.4949 15.0868 88.222 9.34938 95.0197 8.31958H96.3284C104.035 9.45972 104.035 16.3741 104.035 16.3741L105.453 16.3741C105.453 16.3741 105.089 7.98857 96.3647 6.922H94.9834C87.2405 7.7679 86.0772 15.0868 86.0772 15.0868Z" fill="white"/>
<path d="M105.198 18.875H103.926C103.926 18.875 102.835 25.0805 96.3284 25.6055C95.8048 25.6477 95.507 25.648 94.9834 25.6055C88.4037 25.0719 87.2405 18.7647 87.2405 17.22C87.2405 17.22 87.2405 16.9258 86.9133 16.6683C86.6527 16.4632 86.3317 16.3741 86.3317 16.3741H83.4432C83.4432 16.3741 82.9873 16.4476 82.9873 17.0361C82.9873 17.6036 83.4963 17.6246 83.4963 17.6246H85.9318C85.9318 19.0589 87.4586 26.2675 94.9834 26.9295C95.5215 26.9682 95.8274 26.9776 96.3648 26.9295C104.18 26.2307 105.198 18.875 105.198 18.875Z" fill="white"/>
<path d="M18.3389 18.6154L12.1295 3.55769C11.9881 3.21154 11.8531 2.82692 11.7246 2.40385C11.6089 2.82692 11.4739 3.21154 11.3196 3.55769L5.11021 18.6154H18.3389ZM23.4684 28.3077H22.6392C22.4464 28.3077 22.3049 28.1987 22.2149 27.9808L18.686 19.4231H4.7631L1.23416 27.9808C1.16988 28.1987 1.02204 28.3077 0.790636 28.3077H0L11.2232 1.26923H12.2452L23.4684 28.3077Z" fill="white"/>
<path d="M42.2906 11.2885C42.2263 11.4038 42.1299 11.4615 42.0013 11.4615C41.8856 11.4615 41.7185 11.3782 41.5 11.2115C41.2943 11.0321 41.005 10.8462 40.6322 10.6538C40.2594 10.4487 39.7901 10.2628 39.2245 10.0962C38.6717 9.91667 37.9839 9.82692 37.1611 9.82692C36.4026 9.82692 35.7084 9.94231 35.0784 10.1731C34.4614 10.391 33.9278 10.6859 33.4779 11.0577C33.0279 11.4295 32.6808 11.8654 32.4366 12.3654C32.1923 12.8654 32.0702 13.3846 32.0702 13.9231C32.0702 14.5641 32.2244 15.1026 32.533 15.5385C32.8544 15.9744 33.2722 16.3462 33.7864 16.6538C34.3007 16.9487 34.8856 17.2051 35.5413 17.4231C36.1969 17.6282 36.8654 17.8397 37.5468 18.0577C38.2281 18.2628 38.8966 18.4872 39.5523 18.7308C40.2079 18.9744 40.7929 19.2756 41.3071 19.6346C41.8214 19.9936 42.2327 20.4359 42.5413 20.9615C42.8627 21.4872 43.0234 22.1346 43.0234 22.9038C43.0234 23.6987 42.882 24.4423 42.5991 25.1346C42.3163 25.8269 41.8985 26.4359 41.3457 26.9615C40.8057 27.4744 40.1372 27.8782 39.3402 28.1731C38.556 28.4679 37.656 28.6154 36.6404 28.6154C35.9591 28.6154 35.342 28.5577 34.7892 28.4423C34.2364 28.3397 33.7222 28.1923 33.2465 28C32.7708 27.7949 32.3273 27.5513 31.9159 27.2692C31.5045 26.9872 31.106 26.6731 30.7203 26.3269L30.971 26C31.0224 25.9359 31.0674 25.891 31.106 25.8654C31.1574 25.8269 31.2345 25.8077 31.3374 25.8077C31.4659 25.8077 31.6459 25.9167 31.8773 26.1346C32.1216 26.3397 32.443 26.5705 32.8415 26.8269C33.2529 27.0833 33.7671 27.3205 34.3842 27.5385C35.0013 27.7436 35.7598 27.8462 36.6597 27.8462C37.5468 27.8462 38.3246 27.7244 38.9931 27.4808C39.6744 27.2244 40.2401 26.8782 40.69 26.4423C41.1528 26.0064 41.5 25.5 41.7314 24.9231C41.9628 24.3333 42.0785 23.7115 42.0785 23.0577C42.0785 22.3654 41.9178 21.7885 41.5964 21.3269C41.2878 20.8654 40.8764 20.4808 40.3622 20.1731C39.848 19.8526 39.263 19.5833 38.6074 19.3654C37.9517 19.1474 37.2832 18.9359 36.6019 18.7308C35.9205 18.5256 35.252 18.3077 34.5964 18.0769C33.9407 17.8333 33.3558 17.5385 32.8415 17.1923C32.3273 16.8333 31.9095 16.3974 31.5881 15.8846C31.2795 15.3718 31.1253 14.7308 31.1253 13.9615C31.1253 13.3205 31.2667 12.7051 31.5495 12.1154C31.8452 11.5128 32.2566 10.9872 32.7837 10.5385C33.3108 10.0769 33.9407 9.71154 34.6735 9.44231C35.4191 9.17308 36.2483 9.03846 37.1611 9.03846C38.2667 9.03846 39.2437 9.19231 40.0922 9.5C40.9407 9.80769 41.7442 10.2949 42.5027 10.9615L42.2906 11.2885Z" fill="white"/>
<path d="M57.9066 28.6154C56.7238 28.6154 55.7982 28.2949 55.1297 27.6538C54.4612 27 54.1269 25.9551 54.1269 24.5192V10.8462H51.1572C50.913 10.8462 50.7908 10.75 50.7908 10.5577V10.2115L54.1269 10.0769L54.4162 2.76923C54.429 2.69231 54.4612 2.62179 54.5126 2.55769C54.564 2.48077 54.6347 2.44231 54.7247 2.44231H55.149V10.0769H61.4355V10.8462H55.149V24.4808C55.149 25.0705 55.2261 25.5769 55.3804 26C55.5346 26.4103 55.7403 26.75 55.9975 27.0192C56.2546 27.2885 56.5567 27.4872 56.9038 27.6154C57.2638 27.7308 57.6494 27.7885 58.0608 27.7885C58.5622 27.7885 58.9993 27.7115 59.3721 27.5577C59.7578 27.4038 60.0856 27.2372 60.3556 27.0577C60.6256 26.8782 60.8441 26.7115 61.0112 26.5577C61.1784 26.4038 61.3005 26.3269 61.3776 26.3269C61.4419 26.3269 61.5126 26.3654 61.5898 26.4423L61.8405 26.8077C61.6219 27.0769 61.3648 27.3205 61.0691 27.5385C60.7863 27.7564 60.4713 27.9487 60.1242 28.1154C59.7771 28.2692 59.4171 28.391 59.0443 28.4808C58.6715 28.5705 58.2922 28.6154 57.9066 28.6154Z" fill="white"/>
<path d="M71.5396 14.4231C71.8224 13.5641 72.1567 12.8013 72.5424 12.1346C72.928 11.4679 73.3716 10.9038 73.8729 10.4423C74.3872 9.98077 74.9657 9.63462 75.6085 9.40385C76.2513 9.16026 76.9776 9.03846 77.7876 9.03846C78.1604 9.03846 78.5396 9.07051 78.9253 9.13462C79.3238 9.1859 79.6774 9.30128 79.9859 9.48077L79.8702 10.0769C79.8188 10.2179 79.7288 10.2885 79.6002 10.2885C79.4588 10.2885 79.2403 10.2436 78.9446 10.1538C78.6618 10.0513 78.2375 10 77.6719 10C76.8748 10 76.1613 10.1282 75.5313 10.3846C74.9143 10.6282 74.3615 10.9936 73.8729 11.4808C73.3973 11.9679 72.973 12.5769 72.6002 13.3077C72.2274 14.0385 71.8867 14.891 71.5782 15.8654V28.3077H70.5561V9.34615H71.0189C71.2761 9.34615 71.411 9.48718 71.4239 9.76923L71.5396 14.4231Z" fill="white"/>
<path d="M132.922 18.6154L126.713 3.55769C126.572 3.21154 126.437 2.82692 126.308 2.40385C126.192 2.82692 126.057 3.21154 125.903 3.55769L119.694 18.6154H132.922ZM138.052 28.3077H137.223C137.03 28.3077 136.888 28.1987 136.798 27.9808L133.269 19.4231H119.347L115.818 27.9808C115.753 28.1987 115.606 28.3077 115.374 28.3077H114.583L125.807 1.26923H126.829L138.052 28.3077Z" fill="white"/>
<path d="M152.767 20.4038C153.654 20.4038 154.444 20.2756 155.139 20.0192C155.846 19.7628 156.437 19.4038 156.913 18.9423C157.401 18.468 157.768 17.9103 158.012 17.2692C158.269 16.6154 158.397 15.891 158.397 15.0962C158.397 14.3141 158.269 13.5962 158.012 12.9423C157.755 12.2885 157.382 11.7308 156.893 11.2692C156.418 10.8077 155.826 10.4487 155.119 10.1923C154.425 9.9359 153.641 9.80769 152.767 9.80769C151.892 9.80769 151.108 9.9359 150.414 10.1923C149.72 10.4487 149.128 10.8077 148.64 11.2692C148.164 11.7308 147.798 12.2885 147.541 12.9423C147.284 13.5962 147.155 14.3141 147.155 15.0962C147.155 15.891 147.284 16.6154 147.541 17.2692C147.798 17.9103 148.164 18.468 148.64 18.9423C149.128 19.4038 149.72 19.7628 150.414 20.0192C151.108 20.2756 151.892 20.4038 152.767 20.4038ZM160.461 29.7308C160.461 29.0641 160.287 28.5256 159.94 28.1154C159.606 27.7051 159.156 27.391 158.59 27.1731C158.037 26.9423 157.395 26.7821 156.662 26.6923C155.929 26.6026 155.164 26.5385 154.367 26.5C153.583 26.4615 152.792 26.4231 151.995 26.3846C151.211 26.3462 150.478 26.2628 149.797 26.1346C149.231 26.3397 148.711 26.5833 148.235 26.8654C147.772 27.1346 147.367 27.4423 147.02 27.7885C146.686 28.1346 146.422 28.5192 146.229 28.9423C146.037 29.3654 145.94 29.8269 145.94 30.3269C145.94 30.9423 146.101 31.5192 146.422 32.0577C146.744 32.5962 147.206 33.0577 147.811 33.4423C148.428 33.8397 149.173 34.1538 150.048 34.3846C150.922 34.6154 151.912 34.7308 153.017 34.7308C154.02 34.7308 154.971 34.609 155.871 34.3654C156.771 34.1218 157.562 33.7756 158.243 33.3269C158.925 32.891 159.465 32.3654 159.863 31.75C160.262 31.1346 160.461 30.4615 160.461 29.7308ZM161.676 10.2308V10.5385C161.676 10.641 161.637 10.7244 161.56 10.7885C161.483 10.8526 161.386 10.891 161.271 10.9038L157.858 11.0385C158.333 11.5641 158.7 12.1667 158.957 12.8462C159.214 13.5256 159.342 14.2692 159.342 15.0769C159.342 15.9872 159.182 16.8141 158.86 17.5577C158.552 18.3013 158.108 18.9423 157.53 19.4808C156.964 20.0064 156.276 20.4167 155.466 20.7115C154.656 20.9936 153.757 21.1346 152.767 21.1346C151.558 21.1346 150.491 20.9231 149.565 20.5C148.961 20.8462 148.473 21.2692 148.1 21.7692C147.74 22.2564 147.56 22.7244 147.56 23.1731C147.56 23.7756 147.759 24.2372 148.158 24.5577C148.556 24.8782 149.077 25.1154 149.72 25.2692C150.363 25.4231 151.095 25.5256 151.918 25.5769C152.754 25.6154 153.602 25.6538 154.464 25.6923C155.338 25.7308 156.186 25.8013 157.009 25.9038C157.845 26.0064 158.584 26.1923 159.227 26.4615C159.869 26.7308 160.39 27.1154 160.789 27.6154C161.187 28.1154 161.386 28.7821 161.386 29.6154C161.386 30.3846 161.187 31.1218 160.789 31.8269C160.403 32.5449 159.844 33.1731 159.111 33.7115C158.378 34.25 157.491 34.6795 156.45 35C155.421 35.3333 154.271 35.5 152.998 35.5C151.7 35.5 150.549 35.3654 149.546 35.0962C148.556 34.8269 147.721 34.4551 147.039 33.9808C146.371 33.5192 145.863 32.9808 145.516 32.3654C145.182 31.75 145.015 31.0962 145.015 30.4038C145.015 29.3654 145.368 28.4679 146.075 27.7115C146.782 26.9423 147.746 26.3526 148.968 25.9423C148.273 25.7372 147.714 25.4359 147.29 25.0385C146.879 24.641 146.673 24.0769 146.673 23.3462C146.673 23.0897 146.724 22.8205 146.827 22.5385C146.943 22.2436 147.097 21.9615 147.29 21.6923C147.496 21.4103 147.74 21.141 148.023 20.8846C148.306 20.6282 148.627 20.4038 148.987 20.2115C148.1 19.6987 147.412 19.0064 146.924 18.1346C146.435 17.25 146.191 16.2308 146.191 15.0769C146.191 14.1795 146.345 13.3654 146.654 12.6346C146.962 11.891 147.399 11.2564 147.965 10.7308C148.543 10.1923 149.238 9.77564 150.048 9.48077C150.857 9.1859 151.764 9.03846 152.767 9.03846C153.602 9.03846 154.367 9.14103 155.061 9.34615C155.768 9.55128 156.392 9.84616 156.932 10.2308H161.676Z" fill="white"/>
<path d="M184.353 17C184.353 15.859 184.186 14.8462 183.852 13.9615C183.531 13.0641 183.081 12.3077 182.502 11.6923C181.937 11.0769 181.262 10.609 180.477 10.2885C179.693 9.96795 178.845 9.80769 177.932 9.80769C176.852 9.80769 175.881 9.98077 175.02 10.3269C174.172 10.6603 173.439 11.141 172.822 11.7692C172.205 12.3974 171.703 13.1538 171.318 14.0385C170.945 14.9231 170.701 15.9103 170.585 17H184.353ZM184.778 25.9808C184.521 26.3013 184.161 26.6154 183.698 26.9231C183.235 27.2308 182.701 27.5064 182.097 27.75C181.506 27.9808 180.857 28.1667 180.15 28.3077C179.455 28.4615 178.742 28.5385 178.009 28.5385C176.711 28.5385 175.534 28.3141 174.48 27.8654C173.439 27.4038 172.545 26.7436 171.8 25.8846C171.067 25.0256 170.501 23.9744 170.103 22.7308C169.704 21.4744 169.505 20.0449 169.505 18.4423C169.505 17.0577 169.691 15.7949 170.064 14.6538C170.45 13.5 171.003 12.5064 171.723 11.6731C172.443 10.8397 173.323 10.1923 174.364 9.73077C175.406 9.26923 176.589 9.03846 177.913 9.03846C178.941 9.03846 179.899 9.21795 180.786 9.57692C181.686 9.9359 182.47 10.4679 183.139 11.1731C183.807 11.8654 184.328 12.7244 184.701 13.75C185.086 14.7756 185.279 15.9487 185.279 17.2692C185.279 17.5385 185.163 17.6731 184.932 17.6731H170.527C170.514 17.8013 170.508 17.9295 170.508 18.0577C170.508 18.1731 170.508 18.3013 170.508 18.4423C170.508 19.9551 170.688 21.2885 171.048 22.4423C171.408 23.5962 171.915 24.5641 172.571 25.3462C173.227 26.1282 174.017 26.7244 174.943 27.1346C175.881 27.5321 176.923 27.7308 178.067 27.7308C179.083 27.7308 179.963 27.6218 180.709 27.4038C181.454 27.1731 182.078 26.9231 182.579 26.6538C183.081 26.3846 183.466 26.141 183.736 25.9231C184.019 25.6923 184.199 25.5769 184.276 25.5769C184.379 25.5769 184.463 25.6154 184.527 25.6923L184.778 25.9808Z" fill="white"/>
<path d="M196.255 13.0192C197.142 11.8013 198.196 10.8333 199.417 10.1154C200.651 9.39744 201.995 9.03846 203.447 9.03846C204.502 9.03846 205.421 9.20513 206.205 9.53846C207.002 9.85898 207.658 10.3269 208.172 10.9423C208.699 11.5449 209.091 12.2885 209.348 13.1731C209.618 14.0577 209.753 15.0577 209.753 16.1731V28.3077H208.731V16.1731C208.731 15.1859 208.622 14.3013 208.403 13.5192C208.185 12.7372 207.844 12.0769 207.381 11.5385C206.931 10.9872 206.366 10.5705 205.684 10.2885C205.003 9.99359 204.2 9.84616 203.274 9.84616C201.885 9.84616 200.6 10.2115 199.417 10.9423C198.247 11.6603 197.206 12.6603 196.293 13.9423V28.3077H195.271V9.34615H195.753C195.997 9.34615 196.126 9.47436 196.139 9.73077L196.255 13.0192Z" fill="white"/>
<path d="M234.22 13.1731C233.423 11.9551 232.543 11.0962 231.579 10.5962C230.614 10.0833 229.509 9.82692 228.262 9.82692C227.015 9.82692 225.928 10.0577 225.003 10.5192C224.077 10.9679 223.306 11.5962 222.689 12.4038C222.072 13.2115 221.609 14.1667 221.3 15.2692C220.992 16.3718 220.838 17.5705 220.838 18.8654C220.838 21.8782 221.403 24.109 222.535 25.5577C223.679 27.0064 225.344 27.7308 227.529 27.7308C228.866 27.7308 230.1 27.3654 231.232 26.6346C232.376 25.9038 233.372 24.891 234.22 23.5962V13.1731ZM235.243 0.5V28.3077H234.78C234.523 28.3077 234.388 28.1795 234.375 27.9231L234.259 24.5385C233.411 25.7821 232.395 26.7628 231.212 27.4808C230.042 28.1859 228.744 28.5385 227.317 28.5385C224.9 28.5385 223.042 27.7436 221.744 26.1538C220.445 24.5641 219.796 22.1346 219.796 18.8654C219.796 17.4808 219.97 16.1923 220.317 15C220.677 13.8077 221.204 12.7692 221.898 11.8846C222.605 11 223.473 10.3077 224.501 9.80769C225.543 9.29487 226.745 9.03846 228.108 9.03846C229.47 9.03846 230.647 9.30128 231.636 9.82692C232.639 10.3397 233.501 11.1154 234.22 12.1538V0.5H235.243Z" fill="white"/>
<path d="M257.491 18.8077C253.609 18.9359 250.735 19.4167 248.871 20.25C247.02 21.0833 246.094 22.2564 246.094 23.7692C246.094 24.4744 246.21 25.0833 246.442 25.5962C246.686 26.109 247.001 26.5385 247.387 26.8846C247.785 27.218 248.235 27.468 248.736 27.6346C249.238 27.7885 249.752 27.8654 250.279 27.8654C251.102 27.8654 251.854 27.7756 252.535 27.5962C253.217 27.4038 253.847 27.1474 254.425 26.8269C255.004 26.5064 255.544 26.1282 256.045 25.6923C256.546 25.2564 257.028 24.7949 257.491 24.3077V18.8077ZM246.114 12.0385C247.065 11.0641 248.061 10.3205 249.103 9.80769C250.144 9.29487 251.333 9.03846 252.67 9.03846C253.66 9.03846 254.522 9.19872 255.254 9.51923C255.987 9.82692 256.591 10.2756 257.067 10.8654C257.556 11.4551 257.915 12.1731 258.147 13.0192C258.378 13.8526 258.494 14.7949 258.494 15.8462V28.3077H258.147C257.89 28.3077 257.742 28.1731 257.703 27.9038L257.511 25.0962C256.983 25.6346 256.456 26.1218 255.929 26.5577C255.402 26.9936 254.843 27.3654 254.252 27.6731C253.66 27.968 253.024 28.1987 252.342 28.3654C251.661 28.5321 250.909 28.6154 250.086 28.6154C249.482 28.6154 248.884 28.5256 248.293 28.3462C247.701 28.1667 247.168 27.8846 246.692 27.5C246.217 27.1154 245.831 26.6218 245.535 26.0192C245.252 25.4038 245.111 24.6667 245.111 23.8077C245.111 22.9744 245.349 22.218 245.825 21.5385C246.313 20.859 247.065 20.2756 248.081 19.7885C249.096 19.2885 250.382 18.8974 251.937 18.6154C253.493 18.3205 255.344 18.1474 257.491 18.0962V15.8462C257.491 13.9487 257.08 12.4744 256.257 11.4231C255.434 10.3718 254.213 9.84616 252.593 9.84616C251.629 9.84616 250.8 9.98718 250.106 10.2692C249.411 10.5385 248.833 10.8462 248.37 11.1923C247.907 11.5256 247.534 11.8333 247.252 12.1154C246.982 12.3846 246.776 12.5192 246.634 12.5192C246.506 12.5192 246.39 12.4487 246.287 12.3077L246.114 12.0385Z" fill="white"/>
</svg>
