<svg width="49" height="48" viewBox="0 0 49 48" fill="none" xmlns="http://www.w3.org/2000/svg">
<path d="M44.171 7.32558C44.171 8.75125 43.0169 9.90698 41.5932 9.90698C40.1695 9.90698 39.0154 8.75125 39.0154 7.32558C39.0154 5.89992 40.1695 4.74419 41.5932 4.74419C43.0169 4.74419 44.171 5.89992 44.171 7.32558Z" fill="white"/>
<path fill-rule="evenodd" clip-rule="evenodd" d="M24.3846 30C27.8476 30 30.655 27.1888 30.655 23.7209C30.655 20.2531 27.8476 17.4419 24.3846 17.4419C20.9216 17.4419 18.1143 20.2531 18.1143 23.7209C18.1143 27.1888 20.9216 30 24.3846 30ZM24.3149 27.3488C26.3543 27.3488 28.0075 25.6933 28.0075 23.6512C28.0075 21.609 26.3543 19.9535 24.3149 19.9535C22.2756 19.9535 20.6224 21.609 20.6224 23.6512C20.6224 25.6933 22.2756 27.3488 24.3149 27.3488Z" fill="white"/>
<path d="M14.9707 14.3758L22.9671 19.5156L19.8953 22.5917L14.9707 14.3758Z" fill="white"/>
<path d="M33.8559 14.3309L28.8338 21.9602L25.931 18.9887L33.8559 14.3309Z" fill="white"/>
<path d="M33.7986 33.2845L25.8021 28.1446L28.8739 25.0685L33.7986 33.2845Z" fill="white"/>
<path d="M14.6346 33.2094L19.6567 25.58L22.5596 28.5516L14.6346 33.2094Z" fill="white"/>
<path d="M10.7292 23.8605C10.7292 23.1669 11.2907 22.6047 11.9833 22.6047H19.647V25.1163H11.9833C11.2907 25.1163 10.7292 24.554 10.7292 23.8605Z" fill="white"/>
<path d="M48.6299 23.8605C48.6299 24.554 48.0685 25.1163 47.3759 25.1163H30.2369V22.6047H47.3759C48.0685 22.6047 48.6299 23.1669 48.6299 23.8605Z" fill="white"/>
<path d="M24.2453 48C23.5527 48 22.9912 47.4378 22.9912 46.7442V29.5814H25.6387V46.7442C25.6387 47.4378 25.0772 48 24.3846 48H24.2453Z" fill="white"/>
<path d="M24.3846 0C25.0772 0 25.6387 0.562247 25.6387 1.25581V18.4186H22.9912V1.25581C22.9912 0.562247 23.5527 0 24.2453 0H24.3846Z" fill="white"/>
<path d="M5.92195 20.2326H8.6391C8.6391 20.2326 10.0325 9.34884 23.0609 7.39535H25.569C40.3391 9.55814 40.3391 22.6744 40.3391 22.6744L43.0563 22.6744C43.0563 22.6744 42.3596 6.76744 25.6387 4.74419H22.9912C8.15141 6.34884 5.92195 20.2326 5.92195 20.2326Z" fill="white"/>
<path d="M42.5686 27.4186H40.1302C40.1302 27.4186 38.04 39.1901 25.569 40.186C24.5655 40.2662 23.9947 40.2666 22.9912 40.186C10.3809 39.1737 8.15144 27.2093 8.15144 24.2791C8.15144 24.2791 8.15141 23.7209 7.52437 23.2326C7.02484 22.8435 6.40965 22.6744 6.40965 22.6744H0.873686C0.873686 22.6744 2.67305e-09 22.814 2.67305e-09 23.9302C-5.89608e-05 25.0068 0.975386 25.0465 0.975386 25.0465H5.6433C5.6433 27.7674 8.56943 41.4419 22.9912 42.6977C24.0226 42.771 24.6088 42.7888 25.6387 42.6977C40.6178 41.3721 42.5686 27.4186 42.5686 27.4186Z" fill="white"/>
</svg>
